<?xml version="1.0" encoding="UTF-8" standalone="no"?>
<!-- Created with Inkscape (http://www.inkscape.org/) -->
<svg xmlns:dc="http://purl.org/dc/elements/1.1/" xmlns:cc="http://creativecommons.org/ns#" xmlns:rdf="http://www.w3.org/1999/02/22-rdf-syntax-ns#" xmlns:svg="http://www.w3.org/2000/svg" xmlns="http://www.w3.org/2000/svg" xmlns:sodipodi="http://sodipodi.sourceforge.net/DTD/sodipodi-0.dtd" xmlns:inkscape="http://www.inkscape.org/namespaces/inkscape" width="400" height="360" id="svg4096" sodipodi:version="0.32" inkscape:version="0.46" version="1.0" sodipodi:docname="Logo_Royal_Rangers.svg" inkscape:output_extension="org.inkscape.output.svg.inkscape">
  <defs id="defs4098">
    <clipPath clipPathUnits="userSpaceOnUse" id="clipPath3956">
      <path d="M 0.06,841.98 L 595.38,841.98 L 595.38,0.06 L 0.06,0.06 L 0.06,841.98 z" id="path3958"/>
    </clipPath>
    <clipPath clipPathUnits="userSpaceOnUse" id="clipPath3950">
      <path d="M 0,841 L 595,841 L 595,0 L 0,0 L 0,841 z" id="path3952"/>
    </clipPath>
    <clipPath clipPathUnits="userSpaceOnUse" id="clipPath3944">
      <path d="M 126.019,786.545 L 200.813,786.545 L 200.813,715.557 L 126.019,715.557 L 126.019,786.545 z" clip-rule="evenodd" id="path3946"/>
    </clipPath>
    <inkscape:perspective sodipodi:type="inkscape:persp3d" inkscape:vp_x="0 : 526.18109 : 1" inkscape:vp_y="0 : 1000 : 0" inkscape:vp_z="744.09448 : 526.18109 : 1" inkscape:persp3d-origin="372.04724 : 350.78739 : 1" id="perspective4104"/>
  </defs>
  <sodipodi:namedview id="base" pagecolor="#ffffff" bordercolor="#666666" borderopacity="1.0" inkscape:pageopacity="0.0" inkscape:pageshadow="2" inkscape:zoom="1.82" inkscape:cx="139.61538" inkscape:cy="192.85714" inkscape:document-units="px" inkscape:current-layer="layer1" showgrid="false" inkscape:window-width="1280" inkscape:window-height="701" inkscape:window-x="0" inkscape:window-y="0"/>
  <metadata id="metadata4101">
    <rdf:RDF>
      <cc:Work rdf:about="">
        <dc:format>image/svg+xml</dc:format>
        <dc:type rdf:resource="http://purl.org/dc/dcmitype/StillImage"/>
      </cc:Work>
    </rdf:RDF>
  </metadata>
  <g inkscape:label="Ebene 1" inkscape:groupmode="layer" id="layer1" transform="translate(-176.34297,-301.85666)">
    <path d="M 486.79577,612.11289 C 446.00675,653.32567 390.59817,664.27096 335.35495,651.60998 C 300.08508,639.79651 262.88764,614.72261 244.94005,578.43986 C 226.07261,535.88346 196.56994,540.73081 186.46183,505.30074 C 182.50851,431.69135 228.63065,359.24988 295.31008,328.90487 C 357.06983,296.09484 441.40745,307.48456 495.44141,349.1676 C 516.47931,365.7664 534.6181,385.64156 547.3566,408.41582 C 562.79783,437.36554 573.216,469.20919 570.51327,504.33437 C 566.65813,533.6665 523.59013,546.96311 516.21576,570.40918 C 504.6245,594.29967 486.79577,612.11289 486.79577,612.11289" style="fill:#e60004;fill-opacity:1;fill-rule:nonzero;stroke:none" id="path3960"/>
    <path d="M 378.20591,646.55076 C 457.06056,646.55076 520.98559,582.62573 520.98559,503.76591 C 520.98559,424.91127 457.06056,360.98624 378.20591,360.98624 C 299.34609,360.98624 235.42107,424.91127 235.42107,503.76591 C 235.42107,582.62573 299.34609,646.55076 378.20591,646.55076 z" style="fill:#ffffff;fill-opacity:1;fill-rule:nonzero;stroke:#ffffff;stroke-width:5.78787661;stroke-linecap:butt;stroke-linejoin:miter;stroke-miterlimit:4;stroke-dasharray:none;stroke-opacity:1" id="path3962"/>
    <path d="M 378.20591,607.70997 C 435.60924,607.70997 482.1448,561.17441 482.1448,503.76591 C 482.1448,446.36258 435.60924,399.82702 378.20591,399.82702 C 320.79741,399.82702 274.26185,446.36258 274.26185,503.76591 C 274.26185,561.17441 320.79741,607.70997 378.20591,607.70997" style="fill:#f8e900;fill-opacity:1;fill-rule:nonzero;stroke:none" id="path3964"/>
    <path d="M 322.70948,371.77649 L 378.08188,430.18754 L 433.20107,372.27777 L 430.19861,451.77321 L 510.19533,449.7733 L 452.04268,503.76591 L 510.16432,558.60604 L 430.30196,556.12553 L 432.88584,635.85352 L 378.20591,577.76288 L 323.21075,635.72433 L 325.8463,555.986 L 246.40253,558.51819 L 304.45183,503.78659 L 246.21649,448.77075 L 326.10469,451.66986 L 322.70948,371.77649" style="fill:#193792;fill-opacity:1;fill-rule:nonzero;stroke:none" id="path3966"/>
    <path d="M 304.71021,430.27539 L 378.29376,438.86418 L 451.69644,430.27539 L 443.21616,503.42484 L 451.69644,577.29262 L 378.20591,569.12241 L 304.67921,577.2306 L 313.62458,503.66256 L 304.71021,430.27539" style="fill:#e60004;fill-opacity:1;fill-rule:nonzero;stroke:none" id="path3968"/>
    <path d="M 235.42107,503.76591 L 339.19976,464.67708 L 378.04571,360.4953 L 417.43944,464.6409 L 520.98559,503.76591 L 417.36193,543.1028 L 378.20591,646.55076 L 338.87419,543.31468 L 235.42107,503.76591" style="fill:#70201a;fill-opacity:1;fill-rule:nonzero;stroke:none" id="path3970"/>
    <path d="M 378.05088,363.3324 L 378.1594,503.7039 L 416.65911,465.40573 L 378.05088,363.3324 z" style="fill:#f8e900;fill-opacity:1;fill-rule:nonzero;stroke:#70201a;stroke-width:1.92756951000000010;stroke-linecap:round;stroke-linejoin:round;stroke-miterlimit:4;stroke-dasharray:none;stroke-opacity:1" id="path3972"/>
    <path d="M 378.20591,644.00306 L 378.1594,503.7039 L 339.65452,542.51368 L 378.20591,644.00306 z" style="fill:#f8e900;fill-opacity:1;fill-rule:nonzero;stroke:#70201a;stroke-width:1.92756951000000010;stroke-linecap:round;stroke-linejoin:round;stroke-miterlimit:4;stroke-dasharray:none;stroke-opacity:1" id="path3974"/>
    <path d="M 239.42107,503.76591 L 378.1594,503.69357 L 339.97492,465.4419 L 239.42107,503.76591 z" style="fill:#f8e900;fill-opacity:1;fill-rule:nonzero;stroke:#70201a;stroke-width:1.92756951000000010;stroke-linecap:round;stroke-linejoin:round;stroke-miterlimit:4;stroke-dasharray:none;stroke-opacity:1" id="path3976"/>
    <path d="M 518.14849,503.75558 L 378.1594,503.7039 L 416.58676,542.30697 L 518.14849,503.75558 z" style="fill:#f8e900;fill-opacity:1;fill-rule:nonzero;stroke:#70201a;stroke-width:1.92756951000000010;stroke-linecap:round;stroke-linejoin:round;stroke-miterlimit:4;stroke-dasharray:none;stroke-opacity:1" id="path3978"/>
    <path d="M 206.39383,446.40909 L 211.60292,433.40187 C 214.34183,426.55978 219.89715,427.3246 222.11412,428.21346 C 224.94604,429.35036 226.8116,431.75853 226.6514,434.6473 C 228.4291,432.90577 229.6797,432.07376 234.48054,433.99617 C 238.24266,435.49998 239.17285,435.87206 240.0617,434.90052 L 240.74384,435.16924 L 238.36151,441.12249 C 237.0024,440.99329 235.5916,440.67289 232.93538,439.61351 C 229.42648,438.20788 227.97951,437.87714 226.38784,441.85631 L 224.16055,447.41164 L 234.23248,451.44248 L 232.12404,456.70841 L 206.39383,446.40909 z M 222.35183,439.37062 C 223.46807,436.57487 223.04948,434.823 220.50178,433.80496 C 219.14266,433.26235 216.88953,433.06597 215.6286,436.2183 L 212.94653,442.92086 L 219.82481,445.67527 L 222.35183,439.37062" style="fill:#f8e900;fill-opacity:1;fill-rule:nonzero;stroke:none" id="path3980"/>
    <path d="M 228.20172,401.34634 C 230.26365,398.31287 237.0024,391.22272 247.75648,398.54025 C 258.51573,405.85262 254.39703,414.72564 252.3351,417.7591 C 250.27317,420.79257 243.5396,427.88272 232.78035,420.56519 C 222.0211,413.25283 226.13979,404.37981 228.20172,401.34634 z M 248.28359,414.99953 C 250.04062,412.41565 250.91914,407.69233 244.5008,403.33076 C 238.08762,398.96401 234.01544,401.51688 232.2584,404.10592 C 230.4962,406.68979 229.62285,411.41311 236.03603,415.77469 C 242.45437,420.14144 246.52139,417.58857 248.28359,414.99953" style="fill:#f8e900;fill-opacity:1;fill-rule:nonzero;stroke:none" id="path3982"/>
    <path d="M 274.58742,390.78347 L 270.41188,394.79364 L 263.1667,387.2539 L 244.30959,381.44018 L 249.23962,376.71169 L 261.7249,381.40917 L 257.33748,368.92907 L 262.06597,364.38662 L 267.39391,383.2954 L 274.58742,390.78347" style="fill:#f8e900;fill-opacity:1;fill-rule:nonzero;stroke:none" id="path3984"/>
    <path d="M 290.81931,377.55403 L 285.6619,380.81488 L 279.21772,352.10288 L 284.86607,348.53714 L 307.91939,366.75861 L 302.60177,370.11765 L 298.04899,366.2315 L 289.40335,371.69381 L 290.81931,377.55403 z M 288.15275,366.82579 L 294.1215,363.05334 L 285.36217,355.61695 L 285.30016,355.65829 L 288.15275,366.82579" style="fill:#f8e900;fill-opacity:1;fill-rule:nonzero;stroke:none" id="path3986"/>
    <path d="M 318.88534,356.76936 L 331.74787,351.82382 L 333.54624,356.5058 L 315.28342,363.52877 L 305.34068,337.65903 L 310.74097,335.5816 L 318.88534,356.76936" style="fill:#f8e900;fill-opacity:1;fill-rule:nonzero;stroke:none" id="path3988"/>
    <path d="M 355.32829,323.63376 L 369.30705,322.6984 C 376.66592,322.20747 378.37645,327.55092 378.53665,329.93842 C 378.73819,332.97705 377.36873,335.70045 374.69701,336.80635 C 377.038,337.65386 378.32477,338.41869 378.67101,343.58127 C 378.93973,347.62761 379.00691,348.62499 380.26784,349.0074 L 380.31952,349.74122 L 373.92702,350.16498 C 373.45158,348.87821 373.12601,347.47258 372.93998,344.61998 C 372.68676,340.84753 372.35602,339.40056 368.08229,339.68479 L 362.11355,340.0827 L 362.83703,350.90396 L 357.17318,351.28121 L 355.32829,323.63376 z M 368.5784,334.9718 C 371.58603,334.77026 372.97615,333.63335 372.79528,330.89962 C 372.69709,329.43714 371.90126,327.32354 368.51122,327.55092 L 361.30738,328.02635 L 361.80348,335.42139 L 368.5784,334.9718" style="fill:#f8e900;fill-opacity:1;fill-rule:nonzero;stroke:none" id="path3990"/>
    <path d="M 393.18204,350.74376 L 387.14611,349.88592 L 400.81997,323.83014 L 407.42952,324.7655 L 413.21223,353.58086 L 406.97992,352.69717 L 406.02389,346.79044 L 395.89511,345.3538 L 393.18204,350.74376 z M 398.09657,340.83203 L 405.0937,341.82423 L 403.22814,330.4862 L 403.15062,330.47586 L 398.09657,340.83203" style="fill:#f8e900;fill-opacity:1;fill-rule:nonzero;stroke:none" id="path3992"/>
    <path d="M 446.30131,335.54025 L 451.37604,337.39547 L 441.83638,363.42025 L 436.39991,361.4255 L 432.58094,338.9768 L 432.50859,338.95097 L 425.70784,357.50834 L 420.63311,355.64796 L 430.17277,329.62318 L 435.89863,331.72646 L 439.58324,353.63253 L 439.65559,353.65837 L 446.30131,335.54025" style="fill:#f8e900;fill-opacity:1;fill-rule:nonzero;stroke:none" id="path3994"/>
    <path d="M 469.62335,362.10247 L 479.38522,368.33477 L 471.34421,380.92341 L 468.08853,378.84597 L 469.47349,375.60579 C 467.3237,376.24659 464.18171,377.2233 459.92349,374.4999 C 454.29065,370.90314 451.76362,363.60629 456.99854,355.41024 C 461.07073,349.03324 468.46061,345.28146 476.31041,350.34068 C 483.46774,354.91414 483.32821,361.37382 481.52984,364.75869 L 476.65149,361.64254 C 477.23027,360.73302 477.44215,356.74352 473.99526,354.54206 C 470.5122,352.31993 465.75788,352.67133 461.93374,358.65558 C 457.86156,365.03258 460.28006,368.91356 463.60293,371.03234 C 464.67265,371.71965 468.52262,373.58004 472.54313,369.50785 L 467.11183,366.03513 L 469.62335,362.10247" style="fill:#f8e900;fill-opacity:1;fill-rule:nonzero;stroke:none" id="path3996"/>
    <path d="M 509.26514,385.17129 L 498.77461,374.86164 L 494.69209,379.01651 L 504.32994,388.48899 L 500.89339,391.98755 L 491.25554,382.51507 L 486.22215,387.63631 L 497.17778,398.40589 L 493.74639,401.89929 L 478.73926,387.15571 L 498.16482,367.38908 L 512.70169,381.67273 L 509.26514,385.17129" style="fill:#f8e900;fill-opacity:1;fill-rule:nonzero;stroke:none" id="path3998"/>
    <path d="M 522.49974,393.37251 L 530.3237,404.99477 C 534.43723,411.11338 530.67511,415.27342 528.6907,416.6067 C 526.16367,418.31205 523.12503,418.49292 520.82539,416.74106 C 521.26464,419.19057 521.24914,420.68922 516.95991,423.57282 C 513.59571,425.83629 512.7637,426.39958 513.0686,427.68118 L 512.46397,428.08943 L 508.88272,422.77699 C 509.75607,421.72277 510.81029,420.73573 513.18229,419.13889 C 516.31911,417.02528 517.4095,416.01757 515.01684,412.46216 L 511.67331,407.49596 L 502.67626,413.55256 L 499.50843,408.84991 L 522.49974,393.37251 z M 519.34224,410.52426 C 521.02176,413.02545 522.70645,413.65591 524.98025,412.12626 C 526.19467,411.30976 527.62097,409.55789 525.72441,406.74147 L 521.69357,400.75205 L 515.54912,404.89142 L 519.34224,410.52426" style="fill:#f8e900;fill-opacity:1;fill-rule:nonzero;stroke:none" id="path4000"/>
    <path d="M 525.94145,436.67306 C 524.52549,437.29836 522.10699,439.12257 524.02422,443.80455 C 525.06811,446.33674 526.83031,448.91028 529.54337,447.79405 C 531.54329,446.97755 531.29007,444.82776 530.81981,441.85114 L 530.33404,438.83834 C 529.59505,434.29589 528.8819,429.91881 534.52508,427.60366 C 537.38285,426.43058 543.0467,425.89831 546.46258,434.21838 C 549.68725,442.07852 545.40836,446.2954 542.28187,447.61835 L 540.16826,442.47644 C 541.25349,441.86664 543.79085,440.32149 541.87362,435.64468 C 541.03644,433.60858 539.28974,431.48981 536.96943,432.44067 C 534.96951,433.26235 535.21756,435.08139 535.4036,436.25447 L 536.43198,443.13274 C 537.01077,446.98788 536.90225,450.78617 532.29778,452.67757 C 524.58234,455.84023 520.68069,448.25915 519.76083,446.01118 C 515.92119,436.65755 520.64968,432.83859 523.83301,431.53115 L 525.94145,436.67306" style="fill:#f8e900;fill-opacity:1;fill-rule:nonzero;stroke:none" id="path4002"/>
    <path d="M 545.2895,456.13996 C 545.69258,458.85819 548.22478,460.73409 550.94301,460.331 C 553.65608,459.92792 555.53197,457.39572 555.12889,454.68266 C 554.7258,451.96442 552.19361,450.08853 549.48054,450.49161 C 546.76231,450.8947 544.88641,453.42689 545.2895,456.13996 z" style="fill:none;stroke:#f9f400;stroke-width:0.87851697;stroke-linecap:round;stroke-linejoin:round;stroke-miterlimit:4;stroke-dasharray:none;stroke-opacity:1" id="path4004"/>
    <path d="M 552.62253,453.23052 L 552.99461,455.75238 C 553.19098,457.08049 552.25045,457.46807 551.82153,457.53008 C 551.26858,457.61277 550.75698,457.40606 550.51926,456.93579 C 550.4004,457.37505 550.27637,457.61794 549.34618,457.75746 C 548.61753,457.86599 548.43666,457.89183 548.39015,458.12437 L 548.25579,458.14505 L 548.08525,456.99264 C 548.31263,456.88928 548.56068,456.8066 549.07746,456.73425 C 549.75443,456.6309 550.01282,456.54821 549.89913,455.77822 L 549.73893,454.70333 L 547.79069,454.99272 L 547.63566,453.97467 L 552.62253,453.23052 z M 550.76214,455.79889 C 550.83966,456.3415 551.06704,456.57922 551.56314,456.50687 C 551.8267,456.46553 552.19361,456.28982 552.10576,455.68003 L 551.91455,454.38293 L 550.58127,454.5793 L 550.76214,455.79889" style="fill:#f8e900;fill-opacity:1;fill-rule:nonzero;stroke:none" id="path4006"/>
  </g>
</svg>